<?xml version="1.0" encoding="UTF-8"?>
<svg version="1.1" xmlns="http://www.w3.org/2000/svg" width="341" height="1137">
<path d="M0 0 C1.2069754 -0.01149078 2.41395081 -0.02298157 3.65750122 -0.03482056 C5.00755227 -0.04244657 6.35760419 -0.04991813 7.70765686 -0.05725098 C9.12013513 -0.0684212 10.53261073 -0.07993436 11.94508362 -0.09176636 C16.59905785 -0.12840733 21.25305961 -0.15356517 25.90711975 -0.1763916 C27.09505973 -0.1823104 27.09505973 -0.1823104 28.30699849 -0.18834877 C35.77905694 -0.22479003 43.25112478 -0.25623364 50.72324276 -0.27745819 C60.27553202 -0.30499155 69.82707532 -0.3556543 79.37905401 -0.43793249 C86.0967894 -0.49383008 92.8143232 -0.52271009 99.53228289 -0.5319314 C103.54260855 -0.53817556 107.55206095 -0.55617419 111.56213188 -0.60331726 C115.34222644 -0.64720142 119.12097699 -0.65740691 122.90128326 -0.64268875 C124.93676152 -0.64317058 126.97214134 -0.67826545 129.0072937 -0.71469116 C137.91145537 -0.63472259 142.7130207 1.43673701 149.442276 7.1673584 C150.55341382 7.90753777 151.67913584 8.62684568 152.8250885 9.31188965 C153.73001038 9.86231934 154.63493225 10.41274902 155.567276 10.9798584 C156.49797913 11.54317871 157.42868225 12.10649902 158.3875885 12.68688965 C159.40465881 13.41972168 159.40465881 13.41972168 160.442276 14.1673584 C160.442276 14.8273584 160.442276 15.4873584 160.442276 16.1673584 C161.205401 16.2911084 161.968526 16.4148584 162.754776 16.5423584 C165.442276 17.1673584 165.442276 17.1673584 168.442276 19.1673584 C168.442276 19.8273584 168.442276 20.4873584 168.442276 21.1673584 C169.15899475 21.43032715 169.8757135 21.6932959 170.614151 21.9642334 C173.53956561 23.2087468 176.02738891 24.68751941 178.692276 26.4173584 C179.661651 27.04513184 180.631026 27.67290527 181.629776 28.31970215 C185.58110156 30.91550352 189.51779568 33.53115733 193.442276 36.1673584 C203.72512855 43.07280864 203.72512855 43.07280864 214.129776 49.7923584 C218.142022 52.33626738 222.14778114 54.88877062 226.129776 57.4798584 C227.14426819 58.13599121 228.15876038 58.79212402 229.20399475 59.46813965 C229.94262756 60.02888184 230.68126038 60.58962402 231.442276 61.1673584 C231.442276 61.8273584 231.442276 62.4873584 231.442276 63.1673584 C186.892276 63.1673584 142.342276 63.1673584 96.442276 63.1673584 C96.442276 74.0573584 96.442276 84.9473584 96.442276 96.1673584 C129.112276 96.1673584 161.782276 96.1673584 195.442276 96.1673584 C195.442276 143.6873584 195.442276 191.2073584 195.442276 240.1673584 C189.5696884 238.6992115 185.17363973 236.03805342 180.3719635 232.4954834 C177.55646604 230.55769163 174.57376006 228.97585262 171.55555725 227.3782959 C169.442276 226.1673584 169.442276 226.1673584 167.61024475 224.7689209 C165.27910507 223.04681771 162.82754333 221.6540282 160.30213928 220.23815918 C156.63779278 218.12844222 153.13389735 215.76076455 149.60438538 213.43493652 C145.98900226 211.07952045 142.34665563 209.02743576 138.442276 207.1673584 C138.442276 206.5073584 138.442276 205.8473584 138.442276 205.1673584 C137.74876038 204.92114746 137.05524475 204.67493652 136.3407135 204.42126465 C133.00434904 202.97790482 130.0812337 201.11059283 127.067276 199.1048584 C121.17739134 195.23370346 115.18682005 191.5820889 109.06581116 188.08703613 C107.49207697 187.16738391 105.96183189 186.17401097 104.442276 185.1673584 C104.442276 184.5073584 104.442276 183.8473584 104.442276 183.1673584 C103.761651 183.1054834 103.081026 183.0436084 102.379776 182.9798584 C98.38160593 181.87398157 95.35003475 180.15366559 92.442276 177.1673584 C91.74186341 174.27202073 91.53709282 172.47684329 91.63514709 169.59484863 C91.6324028 168.84951874 91.62965851 168.10418884 91.62683105 167.33627319 C91.62557677 165.72441336 91.64047175 164.11247666 91.66979599 162.5008831 C91.71620791 159.94876523 91.72057061 157.39955879 91.71440125 154.84706116 C91.71047645 150.35186563 91.74389694 145.85785445 91.789505 141.36291504 C91.86197861 134.16525044 91.90311321 126.9682192 91.89627457 119.77018929 C91.90312935 117.25680678 91.94140156 114.74520114 91.98167419 112.23216248 C91.98599166 110.69160269 91.98904054 109.15103866 91.99061584 107.61047363 C92.0102388 106.91270309 92.02986176 106.21493256 92.05007935 105.49601746 C92.02070179 101.82528241 91.71598451 100.44331234 89.08940125 97.79518127 C86.27670868 96.06554445 83.40925513 94.61530408 80.442276 93.1673584 C78.23256936 91.79609613 76.05101283 90.40871813 73.879776 88.9798584 C68.0807061 85.2001561 62.21364418 81.55946763 56.28211975 77.99157715 C53.442276 76.1673584 53.442276 76.1673584 50.94618225 74.12438965 C48.23537613 72.00564727 45.5298785 70.67887844 42.442276 69.1673584 C39.80304474 67.59747691 37.21862527 65.94367439 34.629776 64.2923584 C28.99144633 60.72823962 23.32496661 57.3187998 17.442276 54.1673584 C17.442276 53.5073584 17.442276 52.8473584 17.442276 52.1673584 C16.71524475 51.89407715 15.9882135 51.6207959 15.239151 51.3392334 C12.55013742 50.21255173 10.18096714 48.93009223 7.692276 47.4173584 C6.91368225 46.94813965 6.1350885 46.4789209 5.332901 45.9954834 C4.37899475 45.39220215 3.4250885 44.7889209 2.442276 44.1673584 C1.67931213 43.87707764 0.91634827 43.58679688 0.13026428 43.28771973 C-2.88607648 41.89014256 -4.5048691 40.8114312 -6.557724 38.1673584 C-8.13679519 32.10145878 -7.44156821 25.55144959 -7.182724 19.3548584 C-7.14612937 17.60819362 -7.11353511 15.86144016 -7.08506775 14.11462402 C-6.79059845 0.05256807 -6.79059845 0.05256807 0 0 Z M-2.557724 3.1673584 C-2.6814949 7.7937242 -2.77213915 12.419123 -2.8323822 17.04675293 C-2.85749848 18.62016591 -2.89159872 20.19346252 -2.93492126 21.76647949 C-2.99570799 24.03060612 -3.02395982 26.29318861 -3.04600525 28.5579834 C-3.07181168 29.25917297 -3.0976181 29.96036255 -3.12420654 30.68280029 C-3.12632232 34.38253643 -2.87338459 35.84742048 -0.23350525 38.52307129 C2.33176797 40.09945041 4.91646696 41.62725185 7.55018616 43.08679199 C11.00826968 45.06169234 14.30357812 47.29266009 17.629776 49.4798584 C23.5330622 53.33554798 29.50081701 56.99292001 35.6219635 60.4954834 C39.65614469 62.88693707 43.51381056 65.52007967 47.39930725 68.1439209 C52.65264648 71.63715546 58.05051417 74.8936895 63.442276 78.1673584 C66.52673738 80.04051029 69.61009784 81.91545179 72.692276 83.7923584 C73.4652301 84.26238281 74.2381842 84.73240723 75.03456116 85.2166748 C79.75238459 88.09736174 84.39013915 91.05722232 88.911026 94.24157715 C90.42930137 95.33981912 90.42930137 95.33981912 92.442276 95.1673584 C92.442276 83.9473584 92.442276 72.7273584 92.442276 61.1673584 C135.672276 61.1673584 178.902276 61.1673584 223.442276 61.1673584 C220.09673261 58.49092369 216.82311408 55.97607474 213.317276 53.5423584 C212.46907288 52.95196777 211.62086975 52.36157715 210.7469635 51.7532959 C206.96527239 48.91953754 206.96527239 48.91953754 202.442276 48.1673584 C202.442276 47.5073584 202.442276 46.8473584 202.442276 46.1673584 C201.01005049 44.95870831 201.01005049 44.95870831 199.11024475 43.81188965 C198.39981018 43.35805908 197.68937561 42.90422852 196.95741272 42.43664551 C195.80523254 41.71553589 195.80523254 41.71553589 194.629776 40.9798584 C193.84876526 40.48300537 193.06775452 39.98615234 192.26307678 39.47424316 C189.99359774 38.03196837 187.71879252 36.59849111 185.442276 35.1673584 C183.56658877 33.9809442 181.69146138 32.79364366 179.817276 31.6048584 C178.97680725 31.07247559 178.1363385 30.54009277 177.270401 29.99157715 C173.03035325 27.25662922 168.84034156 24.44733985 164.65467834 21.63000488 C162.12041583 19.92866051 159.59188038 18.25707368 156.973526 16.68688965 C153.51010666 14.60776909 150.17125206 12.3550357 146.817276 10.1048584 C146.14954163 9.65819824 145.48180725 9.21153809 144.7938385 8.75134277 C143.55568774 7.92301992 142.31785554 7.09422052 141.08045959 6.26477051 C137.22829763 3.68422386 135.44085926 2.9184881 130.80453491 2.92684937 C129.63084351 2.92410004 128.4571521 2.92135071 127.24789429 2.91851807 C125.95892746 2.92570862 124.66996063 2.93289917 123.3419342 2.94030762 C121.97205107 2.94087171 120.60216733 2.9405552 119.23228455 2.93942261 C115.51145365 2.93884802 111.79075132 2.95061936 108.06995034 2.96457052 C104.18219925 2.97706031 100.29444531 2.978247 96.40667725 2.98062134 C89.04376908 2.98684127 81.68092021 3.003259 74.31803817 3.02332032 C65.93603242 3.04566338 57.55402386 3.05666874 49.17199576 3.06671119 C31.92872153 3.0876248 14.68550503 3.12281072 -2.557724 3.1673584 Z M96.442276 100.1673584 C96.318526 112.4598584 96.194776 124.7523584 96.067276 137.4173584 C96.01265198 141.29646973 95.95802795 145.17558105 95.90174866 149.17224121 C95.88168014 152.65425039 95.88168014 152.65425039 95.86961365 156.1362915 C95.86040921 157.68538758 95.83932423 159.23444105 95.80882263 160.78326416 C95.76487855 163.13243044 95.75883948 165.47897538 95.76112366 167.82849121 C95.73953501 168.51672596 95.71794636 169.20496071 95.69570351 169.91405106 C95.66015445 172.09302874 95.66015445 172.09302874 96.442276 175.1673584 C99.98919588 178.27312083 99.98919588 178.27312083 104.442276 179.1673584 C104.442276 179.8273584 104.442276 180.4873584 104.442276 181.1673584 C105.01075256 181.47028809 105.57922913 181.77321777 106.16493225 182.08532715 C110.59099611 184.48678083 114.73351568 187.01136216 118.786026 189.9954834 C120.86543679 191.46676462 123.06215432 192.69859746 125.286026 193.93688965 C128.2462573 195.62615207 131.1583829 197.3917844 134.067276 199.1673584 C135.15266663 199.8273584 136.23805725 200.4873584 137.3563385 201.1673584 C140.2128726 203.01868176 142.79600377 205.03312172 145.442276 207.1673584 C146.391026 207.6417334 147.339776 208.1161084 148.317276 208.6048584 C150.74116564 209.81680322 152.60971125 210.95213718 154.754776 212.5423584 C157.3515502 214.45426907 159.98080424 216.07069715 162.817276 217.6048584 C165.84499986 219.24572217 168.72280387 220.97648737 171.567276 222.9173584 C175.77214702 225.77547358 180.08630939 228.42323205 184.442276 231.0423584 C185.1140387 231.44809082 185.78580139 231.85382324 186.47792053 232.27185059 C189.28020548 234.27682497 189.28020548 234.27682497 192.442276 235.1673584 C192.442276 190.6173584 192.442276 146.0673584 192.442276 100.1673584 C160.762276 100.1673584 129.082276 100.1673584 96.442276 100.1673584 Z " fill="#D9D4CE" transform="translate(109.55772399902344,826.8326416015625)"/>
<path d="M0 0 C3.40116348 1.36046539 5.85604718 2.40211596 8.81640625 4.31640625 C9.84725342 4.97600342 9.84725342 4.97600342 10.89892578 5.64892578 C11.59228027 6.09478027 12.28563477 6.54063477 13 7 C14.32013302 7.82399299 15.64172876 8.64564759 16.96484375 9.46484375 C23.40499771 13.47109337 29.81200683 17.49774308 36.09375 21.75 C38.9853968 23.64616184 41.97490328 25.32654224 45 27 C45 27.66 45 28.32 45 29 C45.66 29.04125 46.32 29.0825 47 29.125 C50.66658179 30.19441969 52.84442922 32.0348049 55.8125 34.37890625 C58.6942786 36.51451003 61.74911332 38.16365464 64.921875 39.82421875 C67 41 67 41 68.828125 42.39453125 C71.16596261 44.122681 73.62466198 45.52171455 76.15771484 46.94238281 C79.11567182 48.64048374 81.95841661 50.50924492 84.8125 52.375 C85.94291379 53.11366012 87.07445445 53.85059819 88.20703125 54.5859375 C88.76143387 54.96446365 89.31583649 55.34298981 89.88703918 55.73298645 C92.00108566 57.08766518 92.00108566 57.08766518 94.52824402 57.94413757 C97.67937099 59.28803116 99.65422365 60.48127921 102 63 C103.2079838 67.93299666 103.12754534 72.62668764 102.93684387 77.68050957 C102.84249502 80.2173372 102.81137006 82.74817578 102.79626465 85.28663635 C102.74584358 91.58449636 102.58752317 97.87880615 102.43267822 104.17480469 C102.30580946 109.50067209 102.22010823 114.82416646 102.18843079 120.15147591 C102.15675118 122.64415869 102.06516689 125.12996523 101.97106934 127.62095642 C101.63886055 135.64191742 101.63886055 135.64191742 105.17736816 142.55506897 C107.719604 144.35528979 110.17101752 145.71090043 113 147 C114.0003125 147.66128906 115.000625 148.32257813 116.03125 149.00390625 C120.26430392 151.67635643 124.50856115 154.31799541 128.8125 156.875 C133.55987126 159.69776129 138.19196242 162.68199731 142.82739258 165.68310547 C146.1842785 167.85051491 149.56110378 169.96381145 153 172 C157.53591674 174.6890451 161.96623985 177.53036004 166.39306641 180.39355469 C172.91194663 184.60348165 179.49626375 188.70715941 186.08496094 192.80664062 C188.73666124 194.45905152 191.38336495 196.11942139 194.02978516 197.78027344 C196.03588706 199.10261219 196.03588706 199.10261219 198.59262085 200.02471924 C201 202 201 202 201.56762695 205.9206543 C201.56683605 207.55538956 201.53862389 209.19025864 201.48828125 210.82421875 C201.47766914 212.11632011 201.47766914 212.11632011 201.46684265 213.43452454 C201.43884839 216.18639913 201.37610323 218.93624033 201.3125 221.6875 C201.28742352 223.55270499 201.26460921 225.41794187 201.24414062 227.28320312 C201.18900551 231.85625248 201.10270033 236.4277815 201 241 C182.19804333 241.11682688 163.39616036 241.20498498 144.59391594 241.25906086 C135.86359394 241.28483719 127.13349752 241.31997665 118.40332031 241.37719727 C110.79364849 241.4270499 103.18414005 241.45929517 95.57430947 241.47044247 C91.54526361 241.47695816 87.51668514 241.49225937 83.48778915 241.52865028 C79.69397084 241.56263958 75.90081151 241.57304733 72.10685539 241.56553841 C70.71608967 241.56691168 69.32530145 241.57682758 67.93466759 241.59602737 C56.11362317 241.75120135 56.11362317 241.75120135 52.3052063 238.54655457 C51.54448822 237.70619156 50.78377014 236.86582855 50 236 C47.2875382 234.6950516 47.2875382 234.6950516 45 234 C45 233.34 45 232.68 45 232 C43.92298828 231.60361328 43.92298828 231.60361328 42.82421875 231.19921875 C35.21067702 227.9663594 28.45648432 222.64999685 21.734375 217.88671875 C17.91641299 215.25232496 14.01191016 212.7615681 10.10229492 210.26611328 C6.16851859 207.75496438 2.27522385 205.19340002 -1.59765625 202.58984375 C-5.29088807 200.14570497 -9.0330323 197.77773904 -12.76635742 195.39550781 C-16.347179 193.09843185 -19.85074908 190.72499014 -23.3125 188.25 C-27.69251158 185.13387236 -32.24200028 182.49392739 -37 180 C-37 179.01 -37 178.02 -37 177 C8.21 177 53.42 177 100 177 C100 166.11 100 155.22 100 144 C67 144 34 144 0 144 C0 96.48 0 48.96 0 0 Z M3 5 C3 49.88 3 94.76 3 141 C35.01 141 67.02 141 100 141 C100.185625 128.934375 100.37125 116.86875 100.5625 104.4375 C100.64443604 100.63790771 100.72637207 96.83831543 100.81079102 92.92358398 C100.84090412 89.49619897 100.84090412 89.49619897 100.85899353 86.06874084 C100.87275044 84.55047318 100.90427685 83.03229964 100.95018005 81.5146637 C101.47739055 72.47309088 101.47739055 72.47309088 98.0463562 64.45852661 C95.76538841 62.64643037 93.61193257 61.27720818 91 60 C89.96875 59.46375 88.9375 58.9275 87.875 58.375 C86.92625 57.92125 85.9775 57.4675 85 57 C83.88224661 56.22763513 82.77889607 55.43418153 81.6875 54.625 C79.0907258 52.71308933 76.46147176 51.09666125 73.625 49.5625 C69.79320327 47.48238178 66.19614496 45.18864139 62.58984375 42.7421875 C59.37639836 40.58050327 56.12993455 38.47351393 52.875 36.375 C52.30112549 36.0027832 51.72725098 35.63056641 51.13598633 35.24707031 C48.26020623 33.39544484 45.36493666 31.62104371 42.3828125 29.9453125 C38.60893717 27.77511629 35.14717188 25.33019018 31.625 22.78125 C29.12860983 21.08727096 26.56500078 19.60103454 23.93603516 18.12451172 C20.26595497 15.99281067 16.73734301 13.63698523 13.1875 11.3125 C11.68159209 10.32850439 10.17510929 9.34538786 8.66796875 8.36328125 C8.01078857 7.93313721 7.3536084 7.50299316 6.67651367 7.05981445 C4.98065558 5.94869759 4.98065558 5.94869759 3 5 Z M102 145 C102 156.55 102 168.1 102 180 C59.1 180 16.2 180 -28 180 C-25.525 181.98 -25.525 181.98 -23 184 C-22.21625 184.66 -21.4325 185.32 -20.625 186 C-18.16541972 187.87396593 -15.64847272 189.37606504 -12.94921875 190.875 C-7.64960659 193.93369399 -2.65884393 197.46025457 2.1875 201.1875 C4.41364478 202.88444337 6.35467716 204.17733858 8.875 205.4375 C12.66800111 207.33400055 15.95728043 209.70328485 19.40625 212.16015625 C23.92954546 215.36869866 28.50492842 218.52602792 33.28125 221.34765625 C37.53880109 223.93521963 41.62746385 226.77552098 45.73632812 229.59179688 C49.07013621 232.11473868 49.07013621 232.11473868 53 233 C53 233.66 53 234.32 53 235 C56.78088384 236.74624118 59.72609293 237.24801067 63.87825012 237.24050903 C65.05469086 237.24325836 66.23113159 237.24600769 67.44322205 237.24884033 C69.36588646 237.2380545 69.36588646 237.2380545 71.32739258 237.22705078 C72.69757072 237.22648633 74.06774946 237.22680389 75.43792725 237.22793579 C79.15037589 237.22850899 82.86269497 237.21676 86.57511353 237.20278788 C90.45751426 237.19027508 94.33991804 237.18910958 98.22233582 237.18673706 C105.57101112 237.18052391 112.91962684 237.16411532 120.26827592 237.14403808 C128.63581799 237.12167396 137.00336293 237.11068436 145.37092745 237.10064721 C162.58065276 237.07974895 179.79032007 237.04457617 197 237 C197.29870969 232.44735791 197.51520482 227.90049606 197.65917969 223.34033203 C197.71920996 221.79342303 197.80088093 220.24718627 197.90527344 218.70263672 C198.24295385 213.57452924 198.30379372 209.00010267 197 204 C193.47067496 200.23538663 189.65445566 198.13766497 185 196 C183.865625 195.34 182.73125 194.68 181.5625 194 C181.02496094 193.70222656 180.48742187 193.40445313 179.93359375 193.09765625 C168.32011336 186.50495324 157.20581755 179.00003767 146.02294922 171.71142578 C139.81009019 167.66469321 133.61132866 163.70087503 127.08203125 160.17578125 C121.40047819 156.96724941 116.06447789 153.15281234 110.8984375 149.17578125 C108.11290638 147.45058605 105.01158288 146.29067838 102 145 Z " fill="#2B7EE0" transform="translate(66,345)"/>
<path d="M0 0 C4.53264205 1.51088068 6.85803037 2.34457597 10.5 4.9375 C13.90881474 7.2965613 17.23979877 9.26452251 21 11 C21 11.66 21 12.32 21 13 C22.08087891 13.40412109 22.08087891 13.40412109 23.18359375 13.81640625 C25.9855275 14.99391794 28.46687665 16.36086944 31.0625 17.9375 C31.89910156 18.44152344 32.73570313 18.94554687 33.59765625 19.46484375 C36 21 36 21 37.87109375 22.44140625 C40.20565493 24.15056205 42.66308264 25.54562732 45.18408203 26.95996094 C48.00456597 28.5753497 50.71361624 30.35267707 53.4375 32.125 C58.65789953 35.50687089 63.9080088 38.83614692 69.1875 42.125 C75.48163186 46.0473974 81.7496904 50.00804814 88 54 C90.89557592 55.84024929 93.79144718 57.68003258 96.6875 59.51953125 C98.47044916 60.66098012 100.23852512 61.82568341 102 63 C102.29006226 65.49223684 102.38581633 67.73831761 102.35302734 70.23193359 C102.35518753 70.97682541 102.35734772 71.72171722 102.35957336 72.48918152 C102.36266505 74.10921654 102.35904057 75.72927489 102.34955978 77.34928513 C102.33585872 79.91317988 102.34223633 82.47629732 102.35440063 85.04019165 C102.38541655 92.33023088 102.38048497 99.62009198 102.36035156 106.91015625 C102.34944012 111.36710988 102.36261282 115.82348086 102.39024734 120.28035355 C102.39569312 121.97960674 102.39161061 123.67891804 102.37784958 125.37812424 C102.35882139 127.75582184 102.37018638 130.13161305 102.38818359 132.50927734 C102.37484482 133.21176102 102.36150604 133.91424469 102.34776306 134.63801575 C102.4103635 138.35619392 102.72958117 139.73086905 105.40933228 142.39785767 C107.5813024 143.74106554 109.67581985 144.95037026 112 146 C115.41586745 147.634782 118.04362681 149.62048012 121 152 C123.2460563 153.30546954 125.51974777 154.53990133 127.81640625 155.75390625 C130 157 130 157 131.83984375 158.40234375 C134.17332431 160.12819104 136.62892456 161.52410523 139.15771484 162.94238281 C142.11576495 164.64053721 144.95756514 166.51042107 147.8125 168.375 C151.83750846 170.98466758 155.8708732 173.55664893 160 176 C164.68337447 178.77305067 169.24617343 181.71529785 173.81274414 184.67480469 C178.09035007 187.43877821 182.43410341 190.06766758 186.8203125 192.65625 C188.89609182 193.93594191 190.85140114 195.30232187 192.8125 196.75 C196.12949021 199.27608466 196.12949021 199.27608466 201 201 C201 213.87 201 226.74 201 240 C182.13665634 240.15822035 163.27385269 240.28708022 144.4100132 240.3626852 C135.6505413 240.39872824 126.89151198 240.4478381 118.13232422 240.52807617 C110.49477849 240.59800595 102.85755339 240.64304511 95.2196964 240.65861946 C91.17802875 240.6677189 87.13727806 240.68899232 83.0959053 240.7401104 C79.28549406 240.78791293 75.4763702 240.80222399 71.66568756 240.79175377 C70.27334195 240.79366683 68.88094968 240.80742157 67.4888649 240.83443832 C57.82968296 241.01257466 52.29932371 239.35630212 45 233 C44.071875 232.33871094 43.14375 231.67742187 42.1875 230.99609375 C41.465625 230.48175781 40.74375 229.96742188 40 229.4375 C35.98225524 226.62132377 31.85793159 224.08378883 27.6328125 221.59375 C20.94185987 217.5434404 14.50590201 213.08143389 8.125 208.5625 C3.67622128 205.42635934 -0.88093085 202.47664458 -5.46948242 199.55151367 C-10.5511014 196.30642644 -15.57083258 192.9745901 -20.57128906 189.60595703 C-25.33170302 186.40932022 -30.18700235 183.39576426 -35.12109375 180.47265625 C-35.74113281 179.98667969 -36.36117187 179.50070312 -37 179 C-37 178.01 -37 177.02 -37 176 C8.21 176 53.42 176 100 176 C100 165.44 100 154.88 100 144 C67 144 34 144 0 144 C0 96.48 0 48.96 0 0 Z M3 5 C3 49.88 3 94.76 3 141 C35.01 141 67.02 141 100 141 C100.226875 128.769375 100.45375 116.53875 100.6875 103.9375 C100.78764404 100.08570068 100.88778809 96.23390137 100.9909668 92.26538086 C101.0277712 88.79144334 101.0277712 88.79144334 101.04988098 85.31739807 C101.06669811 83.77818253 101.10523973 82.23910602 101.16133118 80.70082092 C101.33798421 75.59798148 101.36048613 70.94649314 100 66 C96.74424842 62.5674897 93.31782518 60.82244959 89 59 C87.08333333 57.77083333 85.16666667 56.54166667 83.25 55.3125 C76.54804059 50.38925859 76.54804059 50.38925859 69 48 C69 47.34 69 46.68 69 46 C66.71330963 44.49361636 64.43565563 43.10749449 62.0625 41.75 C60.67481993 40.93783822 59.28809651 40.12403965 57.90234375 39.30859375 C57.22800293 38.91269043 56.55366211 38.51678711 55.85888672 38.10888672 C52.13839935 35.88949433 48.57242304 33.44751884 45 31 C40.43922964 27.90519154 35.90114427 24.88549844 31.0859375 22.1953125 C28.15160763 20.51384257 25.26179533 18.76128401 22.375 17 C21.28960937 16.34 20.20421875 15.68 19.0859375 15 C16.22898751 13.14840709 13.64673904 11.13446697 11 9 C9.02379014 7.95377125 7.0262871 6.94560065 5 6 C4.34 5.67 3.68 5.34 3 5 Z M102 145 C102 156.55 102 168.1 102 180 C59.43 180 16.86 180 -27 180 C-24.11667826 182.88332174 -22.06819523 184.77449528 -18.76171875 186.8828125 C-17.54246704 187.66664307 -17.54246704 187.66664307 -16.29858398 188.46630859 C-15.43692627 189.01367676 -14.57526855 189.56104492 -13.6875 190.125 C-11.87972431 191.28570482 -10.07243684 192.44717038 -8.265625 193.609375 C-7.37294922 194.18236328 -6.48027344 194.75535156 -5.56054688 195.34570312 C-1.99344203 197.65030862 1.53731348 200.00696406 5.0625 202.375 C10.09166134 205.74647496 15.16417941 209.03750551 20.2890625 212.26171875 C24.43822468 214.92220459 28.50084953 217.709945 32.56640625 220.49609375 C34.8067593 222.17523212 34.8067593 222.17523212 37 222 C37 222.66 37 223.32 37 224 C40.80427492 226.2013866 40.80427492 226.2013866 45 227 C45 227.66 45 228.32 45 229 C53.71907383 236.11947911 60.99861441 238.16614148 72.2355957 237.90820312 C73.60695258 237.90593966 74.9783191 237.90722659 76.34967041 237.91174316 C80.02941178 237.91401436 83.70701542 237.86738724 87.38626504 237.8111515 C91.2471575 237.76072754 95.10811311 237.75640953 98.96928406 237.74694824 C106.26146535 237.722203 113.55267325 237.65671999 120.84442824 237.57615232 C129.15398598 237.48635574 137.4635932 237.4426531 145.7735163 237.40258884 C162.84957144 237.31924021 179.92468241 237.17876471 197 237 C197.1237709 232.3736342 197.21441516 227.74823539 197.2746582 223.12060547 C197.29977448 221.54719249 197.33387472 219.97389588 197.37719727 218.40087891 C197.43798399 216.13675228 197.46623582 213.87416978 197.48828125 211.609375 C197.51408768 210.90818542 197.5398941 210.20699585 197.56648254 209.48455811 C197.62160469 207.22435944 197.62160469 207.22435944 197 204 C194.74204552 201.55981509 194.74204552 201.55981509 192 200 C191.14019531 199.43796875 190.28039062 198.8759375 189.39453125 198.296875 C188.54246094 197.78640625 187.69039062 197.2759375 186.8125 196.75 C185.95269531 196.22921875 185.09289062 195.7084375 184.20703125 195.171875 C182.12207026 193.84367843 182.12207026 193.84367843 180 194 C180 193.34 180 192.68 180 192 C178.2984375 191.195625 178.2984375 191.195625 176.5625 190.375 C171.75958772 187.98205966 167.42666598 185.0158774 163 182 C159.72657041 179.69402795 159.72657041 179.69402795 156 179 C156 178.34 156 177.68 156 177 C154.906875 176.484375 153.81375 175.96875 152.6875 175.4375 C147.20087043 172.69418522 142.13968369 169.33517726 137 166 C135.14639735 164.83243743 133.29223696 163.66575981 131.4375 162.5 C127.77849763 160.17914707 124.21609868 157.76439067 120.6875 155.25 C117.23826725 152.80338783 113.82268064 150.82446121 110 149 C108.9275 148.278125 107.855 147.55625 106.75 146.8125 C104.27061027 144.81656221 104.27061027 144.81656221 102 145 Z " fill="#D9D5CE" transform="translate(66,897)"/>
<path d="M0 0 C18.82860429 -0.18728313 37.65701832 -0.3281508 56.48636246 -0.41449738 C65.23015826 -0.4556641 73.97337371 -0.51173981 82.71679688 -0.60351562 C90.34191094 -0.68351456 97.96660451 -0.73492709 105.59212661 -0.75270796 C109.62615916 -0.76309435 113.65898932 -0.78732001 117.69263458 -0.84584045 C121.49823135 -0.90059917 125.30214373 -0.91680319 129.10809708 -0.90486145 C130.49639962 -0.90704232 131.88476507 -0.92268736 133.27272415 -0.9536438 C143.84643407 -1.177684 149.7621354 1.52621304 158 8 C159.38281337 8.90179737 160.77574119 9.7887577 162.1875 10.64453125 C163.12142578 11.22195068 163.12142578 11.22195068 164.07421875 11.81103516 C164.70972656 12.20339355 165.34523438 12.59575195 166 13 C169.00896609 14.88193521 172.00658464 16.78094862 175 18.6875 C175.77472656 19.17283203 176.54945313 19.65816406 177.34765625 20.15820312 C178.07855469 20.62548828 178.80945313 21.09277344 179.5625 21.57421875 C180.55443359 22.20203247 180.55443359 22.20203247 181.56640625 22.8425293 C182.03949219 23.22449463 182.51257813 23.60645996 183 24 C183 24.66 183 25.32 183 26 C183.72832031 26.10054688 184.45664062 26.20109375 185.20703125 26.3046875 C188.33012527 27.08218503 190.10630017 28.22216508 192.6875 30.125 C193.55375 30.75277344 194.42 31.38054687 195.3125 32.02734375 C196.199375 32.67832031 197.08625 33.32929688 198 34 C204.7329424 38.86215628 204.7329424 38.86215628 211.8125 43.1875 C214.83264984 44.9048401 217.29499581 46.83599664 220 49 C221.75000627 50.03704076 223.52685092 51.0147883 225.30859375 51.99609375 C227 53 227 53 229.5625 55.0625 C232.22195177 57.1764232 234.927252 58.57081488 238 60 C238 60.99 238 61.98 238 63 C193.45 63 148.9 63 103 63 C103 73.89 103 84.78 103 96 C135.67 96 168.34 96 202 96 C202 143.52 202 191.04 202 240 C198.1001841 239.02504602 196.0782895 237.67665176 192.9140625 235.3203125 C191.03531456 234.02435984 189.18485414 233.03908423 187.125 232.0625 C182.44141577 229.81546248 178.27137923 226.93975674 174 224 C172.4607051 222.9548317 170.91906189 221.91311292 169.375 220.875 C168.70210937 220.41867187 168.02921875 219.96234375 167.3359375 219.4921875 C164.88625929 217.92734289 162.37166434 216.50192366 159.84228516 215.07080078 C156.22563613 212.96867745 152.74996166 210.64450618 149.25 208.35546875 C144.6242725 205.35081093 139.93858361 202.46929181 135 200 C135 199.34 135 198.68 135 198 C134.27296875 197.72671875 133.5459375 197.4534375 132.796875 197.171875 C124.10869101 193.53157445 116.29644047 187.61235765 108.54296875 182.32421875 C107.74503906 181.78410156 106.94710937 181.24398437 106.125 180.6875 C105.40570313 180.19636719 104.68640625 179.70523438 103.9453125 179.19921875 C101.91268303 177.84386787 101.91268303 177.84386787 99 177 C99.00967804 176.03613373 99.01935608 175.07226746 99.02932739 174.07919312 C99.11409487 164.98623712 99.14618136 155.89440975 99.12697029 146.80106163 C99.1187793 142.12604386 99.12901074 137.45259212 99.18164062 132.77783203 C99.23177266 128.26430195 99.23312425 123.75312755 99.20095444 119.23945999 C99.19720918 117.51947577 99.21090859 115.79936054 99.24249649 114.07966232 C99.75260975 104.70813125 99.75260975 104.70813125 95.86956787 96.68243408 C93.28859592 95.1153192 90.82249692 94.05560332 88 93 C86.31420217 92.03259965 84.64420661 91.03651455 83 90 C82.26523438 89.53722656 81.53046875 89.07445312 80.7734375 88.59765625 C79.98195313 88.09105469 79.19046875 87.58445312 78.375 87.0625 C72.96651876 83.61200719 67.54782447 80.17790744 62.125 76.75 C60.89402588 75.97088257 60.89402588 75.97088257 59.63818359 75.17602539 C58.4598999 74.43147095 58.4598999 74.43147095 57.2578125 73.671875 C56.51821289 73.20330078 55.77861328 72.73472656 55.01660156 72.25195312 C53.34610622 71.21487078 51.64166516 70.23269635 49.9296875 69.265625 C49.29289062 68.84796875 48.65609375 68.4303125 48 68 C48 67.34 48 66.68 48 66 C47.31679687 65.92265625 46.63359375 65.8453125 45.9296875 65.765625 C42.18116193 64.78601032 39.30353345 62.88129573 36.125 60.75 C35.50367188 60.34249512 34.88234375 59.93499023 34.2421875 59.51513672 C31.11178092 57.45094267 28.02763043 55.33802134 25 53.125 C22.09186788 50.9508982 22.09186788 50.9508982 19 49.5 C15.99385177 47.99692589 13.49782248 46.25256014 10.8046875 44.265625 C8.98452575 42.98914793 7.12972987 41.89241204 5.1875 40.8125 C2 39 2 39 0 37 C-0.17525055 34.20315203 -0.23143189 31.5067192 -0.1953125 28.7109375 C-0.1924826 27.89251373 -0.18965271 27.07408997 -0.18673706 26.23086548 C-0.17552532 23.61209607 -0.15041929 20.99366636 -0.125 18.375 C-0.11497147 16.60156743 -0.1058454 14.82812951 -0.09765625 13.0546875 C-0.07558278 8.70299374 -0.04104644 4.3515545 0 0 Z M4 2 C3.77627729 6.57120953 3.61367305 11.13919159 3.50561523 15.71459961 C3.46055227 17.26789884 3.39927546 18.8208204 3.32104492 20.37280273 C2.61666426 29.42620625 2.61666426 29.42620625 5.87426758 37.52392578 C8.18049089 39.34418893 10.37395761 40.6925447 13 42 C13.84812256 42.48476807 14.69624512 42.96953613 15.57006836 43.46899414 C17.01607028 44.29503356 18.47791003 45.0942194 19.95703125 45.859375 C22 47 22 47 23.82421875 48.390625 C26.15912597 50.11770179 28.61403268 51.51457216 31.14453125 52.93359375 C34.77405873 55.01961691 38.24761389 57.35390819 41.75 59.64453125 C44.66560927 61.53837567 47.59321963 63.3595844 50.625 65.0625 C54.39766433 67.22828878 57.85549661 69.67174097 61.375 72.21875 C63.89065447 73.92580125 66.47217636 75.4358621 69.12158203 76.92431641 C72.45302704 78.83208177 75.68937623 80.89215302 78.9375 82.9375 C79.93426758 83.56301758 79.93426758 83.56301758 80.95117188 84.20117188 C86.54655244 87.71253097 86.54655244 87.71253097 89.14501953 89.35986328 C89.84095215 89.79927246 90.53688477 90.23868164 91.25390625 90.69140625 C91.87724854 91.08658447 92.50059082 91.4817627 93.14282227 91.88891602 C95.03994612 93.02389836 97.02267578 94.01133789 99 95 C99 83.45 99 71.9 99 60 C142.23 60 185.46 60 230 60 C227.53404168 58.15053126 225.13501863 56.38491998 222.57421875 54.6953125 C221.94193359 54.27636719 221.30964844 53.85742188 220.65820312 53.42578125 C219.35615539 52.56635232 218.0540727 51.70697633 216.75195312 50.84765625 C213.53736871 48.71762767 210.35819635 46.55689449 207.23046875 44.30078125 C204.51636165 42.36775939 201.78573847 40.70908586 198.87890625 39.08984375 C193.56592063 36.00809118 188.57619068 32.47755935 183.75 28.6875 C180.88408123 26.49220622 178.70386141 25.23149134 175 25 C175 24.34 175 23.68 175 23 C172.57030941 21.35106606 170.14204583 19.81734704 167.625 18.3125 C162.0242143 14.89467337 156.54272958 11.40073352 151.2109375 7.5703125 C150.48132813 7.05210937 149.75171875 6.53390625 149 6 C148.24161835 5.31697815 147.48323669 4.6339563 146.70187378 3.93023682 C141.63600712 0.60103589 135.38150563 1.48038903 129.55908203 1.54589844 C128.18875665 1.54702769 126.81842884 1.54639154 125.44810486 1.54412842 C121.73968713 1.54298335 118.03178963 1.56645841 114.32349253 1.59442425 C110.44378725 1.61947283 106.56406932 1.62178262 102.68429565 1.62652588 C95.34265075 1.63894555 88.00124483 1.67175334 80.65970504 1.71192384 C72.2994202 1.75667309 63.93912379 1.77863649 55.57874894 1.79870558 C38.38569452 1.84048699 21.19287255 1.91081924 4 2 Z M103 99 C102.79375 111.41625 102.5875 123.8325 102.375 136.625 C102.28395996 140.53811035 102.19291992 144.4512207 102.09912109 148.48291016 C102.06566653 152.00610541 102.06566653 152.00610541 102.04556274 155.52938843 C102.03025535 157.09274797 101.99517904 158.65599285 101.94424438 160.21859741 C101.31223774 169.44674321 101.31223774 169.44674321 105.16960144 177.32147217 C107.73915388 178.88044832 110.18448037 179.96765715 113 181 C114.18659773 181.67666309 115.35784957 182.38173611 116.50390625 183.125 C117.51324219 183.74375 118.52257812 184.3625 119.5625 185 C124.78825218 188.22244507 129.92128416 191.55172061 135 195 C136.54002847 196.0440871 138.0817065 197.08574512 139.625 198.125 C140.29789063 198.58132813 140.97078125 199.03765625 141.6640625 199.5078125 C144.08698165 201.05556353 146.57557858 202.4598972 149.07714844 203.87548828 C152.56844042 205.9172469 155.93123219 208.15748719 159.3125 210.375 C164.63738935 213.84574289 169.98429021 217.23719767 175.4609375 220.46484375 C179.39118711 222.84113313 183.23977333 225.34282888 187.0925293 227.84228516 C192.65015278 232.06529111 192.65015278 232.06529111 199 234 C199 189.45 199 144.9 199 99 C167.32 99 135.64 99 103 99 Z " fill="#2E7EE2" transform="translate(103,276)"/>
<path d="M0 0 C27.39 0 54.78 0 83 0 C83 47.52 83 95.04 83 144 C79.53977679 143.1349442 77.79773328 142.43730415 74.875 140.625 C74.00746094 140.09132812 73.13992187 139.55765625 72.24609375 139.0078125 C71.17488281 138.34523437 70.10367188 137.68265625 69 137 C67.55408793 136.12123887 66.10741582 135.24372761 64.66015625 134.3671875 C57.00369775 129.72387977 49.39149363 125.05804765 42 120 C39.96065737 118.62155544 37.91882994 117.24678241 35.875 115.875 C34.92367187 115.23304688 33.97234375 114.59109375 32.9921875 113.9296875 C30.30638866 112.19759269 27.57306543 110.60409054 24.78955078 109.03564453 C21.18746193 106.95105232 17.73199383 104.63275489 14.25 102.35546875 C9.6242725 99.35081093 4.93858361 96.46929181 0 94 C0 92.35 0 90.7 0 89 C3.49768449 90.26305273 6.0535562 91.76784561 9 94 C10.98450156 95.03041427 12.98199105 96.03685937 15 97 C15 97.66 15 98.32 15 99 C15.72058594 99.26941406 16.44117187 99.53882813 17.18359375 99.81640625 C19.9855275 100.99391794 22.46687665 102.36086944 25.0625 103.9375 C25.89910156 104.44152344 26.73570313 104.94554687 27.59765625 105.46484375 C30 107 30 107 32.0546875 108.55078125 C33.99304374 109.99481772 35.92943639 111.11768212 38.0625 112.25 C47.51905845 117.42082753 56.45007504 123.53166517 65.34765625 129.6015625 C66.11980469 130.12492188 66.89195313 130.64828125 67.6875 131.1875 C68.71423828 131.88939453 68.71423828 131.88939453 69.76171875 132.60546875 C72.4033249 134.25128619 75.21621867 135.60810934 78 137 C78.33 92.78 78.66 48.56 79 3 C52.93 3 26.86 3 0 3 C0 2.01 0 1.02 0 0 Z " fill="#CCA056" transform="translate(0,96)"/>
<path d="M0 0 C27.39 0 54.78 0 83 0 C83 47.52 83 95.04 83 144 C78.22479127 142.80619782 74.87630133 140.66148661 70.75 138.0625 C70.00492187 137.60681641 69.25984375 137.15113281 68.4921875 136.68164062 C67.78835937 136.24142578 67.08453125 135.80121094 66.359375 135.34765625 C65.39209473 134.74449585 65.39209473 134.74449585 64.40527344 134.12915039 C63.9415332 133.75653076 63.47779297 133.38391113 63 133 C63 132.34 63 131.68 63 131 C62.26136719 130.89042969 61.52273437 130.78085937 60.76171875 130.66796875 C57.85825063 129.9657155 56.22569174 129.03750197 53.8125 127.3125 C49.62649947 124.38793734 45.31344768 121.81218042 40.87109375 119.296875 C40.25363281 118.86890625 39.63617188 118.4409375 39 118 C39 117.34 39 116.68 39 116 C38.113125 115.73316406 37.22625 115.46632813 36.3125 115.19140625 C33.16089699 114.05786979 30.78227491 112.77640982 28 110.9375 C27.05511719 110.32003906 26.11023438 109.70257812 25.13671875 109.06640625 C24.10160156 108.38449219 23.06648438 107.70257812 22 107 C20.21422846 105.84473662 18.42531948 104.69449586 16.63525391 103.54589844 C15.42620426 102.76923059 14.21882447 101.98995671 13.01318359 101.20800781 C9.76539977 99.1055952 6.47782125 97.116114 3.125 95.1875 C2.09375 94.465625 1.0625 93.74375 0 93 C0 91.68 0 90.36 0 89 C3.65573061 90.37007562 6.95467647 92.01017865 10.3125 94 C11.19550781 94.515625 12.07851562 95.03125 12.98828125 95.5625 C13.65214844 96.036875 14.31601563 96.51125 15 97 C15 97.66 15 98.32 15 99 C15.680625 99.07476563 16.36125 99.14953125 17.0625 99.2265625 C20.86537548 100.22785152 23.78101657 102.20149836 27 104.375 C28.20791336 105.17511355 29.41623943 105.97460443 30.625 106.7734375 C31.19605469 107.1559668 31.76710938 107.53849609 32.35546875 107.93261719 C33.84697999 108.90068238 35.39036743 109.78762836 36.9375 110.6640625 C37.9584375 111.32535156 37.9584375 111.32535156 39 112 C39 112.66 39 113.32 39 114 C39.81597656 114.21914063 40.63195313 114.43828125 41.47265625 114.6640625 C45.90481655 116.34268799 49.51873787 118.74170272 53.4375 121.375 C57.40155816 124.01065822 61.33379226 126.62080864 65.47265625 128.9765625 C69.77401592 131.44400913 73.87400464 134.24933642 78 137 C78.33 92.78 78.66 48.56 79 3 C52.93 3 26.86 3 0 3 C0 2.01 0 1.02 0 0 Z " fill="#FF5B36" transform="translate(0,648)"/>
<path d="M0 0 C4.47848185 -0.20493908 8.95574479 -0.3281889 13.4375 -0.4375 C14.69755859 -0.49615234 15.95761719 -0.55480469 17.25585938 -0.61523438 C26.28320486 -0.78022502 30.52730961 0.84781619 37 7 C38.82752129 8.14772993 40.6760374 9.26446522 42.5625 10.3125 C45.12890625 11.73828125 45.12890625 11.73828125 47 13 C47 13.66 47 14.32 47 15 C48.20462891 15.31130859 48.20462891 15.31130859 49.43359375 15.62890625 C54.12752725 17.43347433 57.93877862 20.09250436 62.0625 22.9375 C63.63605617 24.01008727 65.2102572 25.08172922 66.78515625 26.15234375 C67.5210498 26.65403076 68.25694336 27.15571777 69.01513672 27.67260742 C71.29648784 29.19827852 73.64010211 30.59971155 76 32 C77.59342913 33.08954674 79.17663408 34.19417618 80.75 35.3125 C86.61148096 39.44336566 92.51952411 43.48671098 98.625 47.25 C100.08551182 48.16319171 101.54336841 49.08063157 103 50 C103.59248535 50.37205566 104.1849707 50.74411133 104.79541016 51.12744141 C106.85120226 52.42638967 108.89486795 53.74297025 110.9375 55.0625 C111.61312988 55.4862793 112.28875977 55.91005859 112.98486328 56.34667969 C117.88606355 59.54425419 117.88606355 59.54425419 119 64 C79.73 64 40.46 64 0 64 C0 62.68 0 61.36 0 60 C35.97 59.67 71.94 59.34 109 59 C99.20163854 52.69659223 99.20163854 52.69659223 89.375 46.4375 C84.43758775 43.30414223 79.57588232 40.06461073 74.7265625 36.796875 C73.04282205 35.68724662 71.34000154 34.60529504 69.609375 33.5703125 C66.21044239 31.52484707 62.92213032 29.32970762 59.625 27.125 C58.99078125 26.70347656 58.3565625 26.28195313 57.703125 25.84765625 C54.50752604 23.71508307 51.35079117 21.54535098 48.23828125 19.29296875 C45.24830521 17.17582046 42.31765768 15.53745112 39 14 C39 13.34 39 12.68 39 12 C38.25741943 11.7333252 37.51483887 11.46665039 36.74975586 11.19189453 C34.07272495 10.03152297 32.27005191 8.73651299 30.00390625 6.9296875 C24.25162004 3.00577673 18.72301543 3.10933811 11.9375 3.125 C10.20983398 3.0940625 10.20983398 3.0940625 8.44726562 3.0625 C5.63077843 3.01575332 2.81679263 2.99552636 0 3 C0 2.01 0 1.02 0 0 Z " fill="#D49B5A" transform="translate(0,0)"/>
<path d="M0 0 C3.67127045 1.99164762 7.33652771 3.99404982 11 6 C11.639375 6.34417969 12.27875 6.68835938 12.9375 7.04296875 C16.42091207 8.96052011 19.63606293 11.12894885 22.875 13.4375 C26.78299392 16.21956274 30.74499917 18.63391101 34.9921875 20.859375 C37 22 37 22 39.0078125 23.515625 C41.22733758 25.26016099 41.22733758 25.26016099 45 27 C45 39.87 45 52.74 45 66 C39.06 66.33 33.12 66.66 27 67 C29.37835583 68.66484908 31.75694057 70.32937219 34.13671875 71.9921875 C35.97711627 73.28272546 37.81342274 74.57912815 39.64453125 75.8828125 C43.71840457 78.77394841 47.75924108 81.49552613 52.13671875 83.8984375 C57.0055621 86.77687319 61.99413241 89.99413241 66 94 C65 95 65 95 62.41209412 95.12025452 C61.25959671 95.11803391 60.1070993 95.11581329 58.91967773 95.11352539 C56.96776772 95.11341209 56.96776772 95.11341209 54.97642517 95.11329651 C53.54548098 95.10818909 52.11453718 95.10297308 50.68359375 95.09765625 C49.2277074 95.09579203 47.77182043 95.09436815 46.31593323 95.09336853 C42.47720621 95.08954365 38.63851681 95.07971364 34.79980469 95.06866455 C30.88542184 95.05844978 26.97103294 95.05387077 23.05664062 95.04882812 C15.37107657 95.03809134 7.68554355 95.02101529 0 95 C0 94.01 0 93.02 0 92 C27.225 91.505 27.225 91.505 55 91 C49.68704931 87.45803287 44.38041494 83.9338104 39 80.5 C23.70084668 70.69581668 23.70084668 70.69581668 21.3671875 68.37890625 C17.56359545 66.1632825 13.57712464 66.4243533 9.25 66.3125 C8.36183594 66.27833984 7.47367187 66.24417969 6.55859375 66.20898438 C4.37252197 66.12671286 2.18684049 66.05749828 0 66 C0 65.01 0 64.02 0 63 C5.445 62.505 5.445 62.505 11 62 C10.2059375 61.55269531 9.411875 61.10539062 8.59375 60.64453125 C7.06234375 59.73767578 7.06234375 59.73767578 5.5 58.8125 C4.4790625 58.22082031 3.458125 57.62914062 2.40625 57.01953125 C0 55 0 55 -0.34375 52.26171875 C-0.2303125 51.51535156 -0.116875 50.76898438 0 50 C1.051875 50.67095703 1.051875 50.67095703 2.125 51.35546875 C3.548125 52.26232422 3.548125 52.26232422 5 53.1875 C5.928125 53.77917969 6.85625 54.37085938 7.8125 54.98046875 C8.864375 55.64691406 9.91625 56.31335938 11 57 C11.86915039 57.65609253 11.86915039 57.65609253 12.75585938 58.32543945 C18.50619382 62.44685722 23.55910136 62.76935331 30.5 62.8125 C33.965 62.874375 37.43 62.93625 41 63 C41 51.78 41 40.56 41 29 C38.74152829 27.87076415 36.47565604 26.75530615 34.1875 25.6875 C31.22010848 24.11652802 28.66730225 22.40148516 26.00390625 20.37890625 C23.74378251 18.8236944 21.38295894 17.49247693 18.99536133 16.14428711 C15.29330006 14.02125259 11.67455717 11.77185087 8.0625 9.5 C7.28326172 9.02691406 6.50402344 8.55382812 5.70117188 8.06640625 C4.96576172 7.60105469 4.23035156 7.13570312 3.47265625 6.65625 C2.80500244 6.24181641 2.13734863 5.82738281 1.44946289 5.40039062 C0.97114014 4.93826172 0.49281738 4.47613281 0 4 C0 2.68 0 1.36 0 0 Z " fill="#2D7EDF" transform="translate(0,244)"/>
<path d="M0 0 C4.2290362 -0.08725659 8.45784012 -0.1404789 12.6875 -0.1875 C13.88568359 -0.21263672 15.08386719 -0.23777344 16.31835938 -0.26367188 C17.47529297 -0.27333984 18.63222656 -0.28300781 19.82421875 -0.29296875 C20.88729248 -0.3086792 21.95036621 -0.32438965 23.0456543 -0.34057617 C26.41883083 0.0482827 28.30945625 0.95513703 31 3 C31 3.66 31 4.32 31 5 C31.94875 5.309375 32.8975 5.61875 33.875 5.9375 C37 7 37 7 39 8 C39 8.66 39 9.32 39 10 C39.70898438 10.25394531 40.41796875 10.50789062 41.1484375 10.76953125 C44.26429161 12.11404364 46.82743562 13.76841608 49.625 15.6875 C53.54988084 18.35046927 57.48772729 20.97052373 61.5 23.5 C66.39897631 26.59705399 71.21669028 29.80499864 76.03125 33.03125 C79.71877553 35.47666167 83.45496605 37.83965971 87.1953125 40.203125 C91.26240595 42.80878376 95.26794949 45.50400909 99.2734375 48.203125 C101.00096483 49.34161006 102.75058538 50.447799 104.52734375 51.5078125 C107.17100425 53.10319688 109.67137306 54.83592335 112.1875 56.625 C115.48499787 58.99446676 115.48499787 58.99446676 119 61 C119 61.99 119 62.98 119 64 C79.73 64 40.46 64 0 64 C0 63.01 0 62.02 0 61 C35.97 60.67 71.94 60.34 109 60 C103.71449202 56.03586901 100.49466158 53.69126282 95 51 C89.30442726 47.43062753 83.83628148 43.50618046 78.359375 39.61328125 C75.95831397 37.97149614 73.49422706 36.49579391 71 35 C68.7426036 33.50989598 66.49342009 32.01078974 64.25 30.5 C58.60022798 26.71068218 52.90980686 22.99126234 47.1875 19.3125 C41.69139172 15.77880205 36.27506689 12.17257055 30.98046875 8.33984375 C26.9417812 5.60755612 24.05923807 4.73650729 19.140625 4.5859375 C17.46806641 4.52792969 17.46806641 4.52792969 15.76171875 4.46875 C14.60285156 4.4378125 13.44398437 4.406875 12.25 4.375 C11.07566406 4.33632813 9.90132812 4.29765625 8.69140625 4.2578125 C5.79442732 4.1636018 2.89745374 4.07798398 0 4 C0 2.68 0 1.36 0 0 Z " fill="#FF5E38" transform="translate(0,551)"/>
<path d="M0 0 C6.07371183 3.38849187 11.87172074 7.11792757 17.68359375 10.93359375 C18.75287109 11.63162109 18.75287109 11.63162109 19.84375 12.34375 C20.47474609 12.75818359 21.10574219 13.17261719 21.75585938 13.59960938 C25.96922147 16.22883533 30.17876521 18.65852094 34.71533203 20.67163086 C43.96258878 25.12200096 43.96258878 25.12200096 45.7322998 30.03155518 C46.75327739 35.85862488 46.27639197 41.69471193 45.875 47.5625 C45.80468495 49.35196949 45.74082199 51.14170482 45.68359375 52.93164062 C45.54197053 57.29970541 45.26895009 61.63062838 45 66 C35.1 66.495 35.1 66.495 25 67 C27.908125 68.7634375 27.908125 68.7634375 30.875 70.5625 C37.42622327 74.57059765 43.72285137 78.87672717 49.92578125 83.40625 C52.77512942 85.47850322 55.59355225 87.3713167 58.6875 89.0625 C62 91 62 91 66 95 C44.22 95 22.44 95 0 95 C0 94.34 0 93.68 0 93 C27.225 92.505 27.225 92.505 55 92 C48.86045375 87.70231763 42.80408871 83.4769926 36.46606445 79.5078125 C33.41941934 77.59034921 30.46385529 75.63034731 27.58984375 73.4609375 C18.56461871 66.83008055 11.11539489 65.66357764 0 66 C0 65.34 0 64.68 0 64 C5.445 63.505 5.445 63.505 11 63 C10.2059375 62.55269531 9.411875 62.10539063 8.59375 61.64453125 C7.06234375 60.73767578 7.06234375 60.73767578 5.5 59.8125 C4.4790625 59.22082031 3.458125 58.62914062 2.40625 58.01953125 C0 56 0 56 -0.34375 53.26171875 C-0.2303125 52.51535156 -0.116875 51.76898437 0 51 C1.67119575 51.86631838 3.3366939 52.74362856 5 53.625 C5.928125 54.11226562 6.85625 54.59953125 7.8125 55.1015625 C11 57 11 57 12.75585938 58.51904297 C18.45679697 63.43046223 23.12706978 63.8915659 30.5 63.875 C33.965 63.91625 37.43 63.9575 41 64 C41 52.78 41 41.56 41 30 C39.68 29.34 38.36 28.68 37 28 C28.85525283 23.18554945 20.91240214 18.044178 13.0012207 12.85766602 C8.74546084 10.0796216 4.43698747 7.47915227 0 5 C0 3.35 0 1.7 0 0 Z " fill="#D4CFC8" transform="translate(0,795)"/>
<path d="M0 0 C9.57 0 19.14 0 29 0 C29 47.52 29 95.04 29 144 C24.43550886 143.08710177 22.69025717 142.4070471 19 139.9375 C15.83890367 137.84160257 12.68115032 135.79028171 9.39453125 133.8984375 C8.50024414 133.37648804 8.50024414 133.37648804 7.58789062 132.84399414 C5.88215329 131.85296826 4.1697197 130.8734952 2.45703125 129.89453125 C1.64621094 129.26933594 0.83539062 128.64414063 0 128 C0 126.68 0 125.36 0 124 C3.77022754 125.37902016 6.9538304 127.12037266 10.3125 129.3125 C14.84830146 132.25911555 19.41010023 135.13131264 24 138 C24.33 93.78 24.66 49.56 25 4 C16.75 4 8.5 4 0 4 C0 2.68 0 1.36 0 0 Z " fill="#DDDBD5" transform="translate(0,923)"/>
<path d="M0 0 C9.57 0 19.14 0 29 0 C29 47.52 29 95.04 29 144 C24.64450489 143.12890098 23.19051729 142.74531607 19.8125 140.375 C19.04035156 139.84132813 18.26820312 139.30765625 17.47265625 138.7578125 C15.76994115 137.54735153 14.06955083 136.3336159 12.37109375 135.1171875 C11.50613281 134.50101563 10.64117187 133.88484375 9.75 133.25 C8.96109375 132.67765625 8.1721875 132.1053125 7.359375 131.515625 C4.97465094 129.98371617 2.65970105 128.96201953 0 128 C0 126.35 0 124.7 0 123 C3.50148468 124.26442502 6.05914304 125.75110939 9 128 C11.32780382 129.34296374 13.66188563 130.67506852 16 132 C19.96 134.475 19.96 134.475 24 137 C24.33 92.78 24.66 48.56 25 3 C16.75 3 8.5 3 0 3 C0 2.01 0 1.02 0 0 Z " fill="#3180E5" transform="translate(0,372)"/>
<path d="M0 0 C3.67127045 1.99164762 7.33652771 3.99404982 11 6 C11.639375 6.34417969 12.27875 6.68835938 12.9375 7.04296875 C16.42091207 8.96052011 19.63606293 11.12894885 22.875 13.4375 C26.78299392 16.21956274 30.74499917 18.63391101 34.9921875 20.859375 C37 22 37 22 39.0078125 23.515625 C41.22733758 25.26016099 41.22733758 25.26016099 45 27 C45 39.87 45 52.74 45 66 C41.266875 66.061875 37.53375 66.12375 33.6875 66.1875 C31.92732544 66.22846802 31.92732544 66.22846802 30.1315918 66.27026367 C29.20515869 66.27775635 28.27872559 66.28524902 27.32421875 66.29296875 C26.37635498 66.3086792 25.42849121 66.32438965 24.4519043 66.34057617 C22 66 22 66 19 63 C26.26 63 33.52 63 41 63 C41 51.78 41 40.56 41 29 C38.74152829 27.87076415 36.47565604 26.75530615 34.1875 25.6875 C31.22010848 24.11652802 28.66730225 22.40148516 26.00390625 20.37890625 C23.74378251 18.8236944 21.38295894 17.49247693 18.99536133 16.14428711 C15.29330006 14.02125259 11.67455717 11.77185087 8.0625 9.5 C7.28326172 9.02691406 6.50402344 8.55382812 5.70117188 8.06640625 C4.96576172 7.60105469 4.23035156 7.13570312 3.47265625 6.65625 C2.80500244 6.24181641 2.13734863 5.82738281 1.44946289 5.40039062 C0.97114014 4.93826172 0.49281738 4.47613281 0 4 C0 2.68 0 1.36 0 0 Z " fill="#D1A150" transform="translate(0,244)"/>
<path d="M0 0 C6.07371183 3.38849187 11.87172074 7.11792757 17.68359375 10.93359375 C18.75287109 11.63162109 18.75287109 11.63162109 19.84375 12.34375 C20.47474609 12.75818359 21.10574219 13.17261719 21.75585938 13.59960938 C25.96922147 16.22883533 30.17876521 18.65852094 34.71533203 20.67163086 C43.96258878 25.12200096 43.96258878 25.12200096 45.7322998 30.03155518 C46.75327739 35.85862488 46.27639197 41.69471193 45.875 47.5625 C45.80468495 49.35196949 45.74082199 51.14170482 45.68359375 52.93164062 C45.54197053 57.29970541 45.26895009 61.63062838 45 66 C36.75 66 28.5 66 20 66 C19.505 65.01 19.505 65.01 19 64 C26.26 64 33.52 64 41 64 C41 52.78 41 41.56 41 30 C39.68 29.34 38.36 28.68 37 28 C28.85525283 23.18554945 20.91240214 18.044178 13.0012207 12.85766602 C8.74546084 10.0796216 4.43698747 7.47915227 0 5 C0 3.35 0 1.7 0 0 Z " fill="#FE5D36" transform="translate(0,795)"/>
<path d="M0 0 C5.30919923 2.55261171 10.2083984 5.29724957 15.0625 8.625 C16.37103416 9.50920278 17.67962972 10.3933147 18.98828125 11.27734375 C19.65037598 11.72706543 20.3124707 12.17678711 20.99462891 12.64013672 C24.23602234 14.83815978 27.49210351 17.01403909 30.75 19.1875 C31.37777344 19.60652588 32.00554687 20.02555176 32.65234375 20.45727539 C38.64843002 24.44968 44.71357679 28.33156996 50.82910156 32.13867188 C52.78571911 33.35729267 54.73671336 34.5845725 56.6875 35.8125 C57.31277588 36.19801025 57.93805176 36.58352051 58.58227539 36.98071289 C60.08987726 37.93387225 61.55030934 38.96087867 63 40 C63 40.66 63 41.32 63 42 C63.99 42 64.98 42 66 42 C65.67 42.99 65.34 43.98 65 45 C53.94213007 42.81355754 43.14651719 32.95150889 34.125 26.5625 C30.25242004 23.8325473 26.30467157 21.23793112 22.3125 18.6875 C21.73242188 18.3147998 21.15234375 17.94209961 20.5546875 17.55810547 C18.01209341 15.9246688 15.46843177 14.2939866 12.90869141 12.6875 C10.80592728 11.36661279 8.71502117 10.02843286 6.625 8.6875 C5.96411377 8.27910889 5.30322754 7.87071777 4.62231445 7.44995117 C2.7890625 6.26171875 2.7890625 6.26171875 0 4 C0 2.68 0 1.36 0 0 Z " fill="#D3CFC8" transform="translate(40,1079)"/>
<path d="M0 0 C4.01459955 0.6176307 6.68834168 2.74807234 10 5 C11.98507948 6.02930047 13.98114251 7.03863929 16 8 C16 8.66 16 9.32 16 10 C16.72058594 10.26941406 17.44117187 10.53882813 18.18359375 10.81640625 C20.9855275 11.99391794 23.46687665 13.36086944 26.0625 14.9375 C26.89910156 15.44152344 27.73570313 15.94554687 28.59765625 16.46484375 C31 18 31 18 32.87109375 19.44140625 C35.18540104 21.13573397 37.61528641 22.52990657 40.11376953 23.93359375 C43.26745858 25.71657508 46.35889739 27.5909406 49.4375 29.5 C50.07365234 29.87769531 50.70980469 30.25539063 51.36523438 30.64453125 C53.18359375 31.78125 53.18359375 31.78125 56 34 C56 35.32 56 36.64 56 38 C51.40415007 36.71743723 48.67707655 34.96850122 45 32 C42.97742024 30.69900374 40.93425516 29.42963057 38.875 28.1875 C34.72239843 25.66678149 30.59036376 23.12095156 26.5 20.5 C19.50112281 16.02564449 12.4370019 11.64934026 5.3046875 7.390625 C3.50786943 6.30644325 1.74611761 5.16407841 0 4 C0 2.68 0 1.36 0 0 Z " fill="#D2CDC7" transform="translate(71,900)"/>
<path d="M0 0 C4.47848185 -0.20493908 8.95574479 -0.3281889 13.4375 -0.4375 C14.69755859 -0.49615234 15.95761719 -0.55480469 17.25585938 -0.61523438 C26.28320486 -0.78022502 30.52730961 0.84781619 37 7 C38.82752129 8.14772993 40.6760374 9.26446522 42.5625 10.3125 C45.12890625 11.73828125 45.12890625 11.73828125 47 13 C47 13.66 47 14.32 47 15 C47.78375 15.185625 48.5675 15.37125 49.375 15.5625 C54.83068615 17.72596175 61.26295235 21.01771939 64.296875 26.2265625 C64.52890625 26.81179687 64.7609375 27.39703125 65 28 C60.76175918 27.43079887 57.99097375 25.96762386 54.4375 23.625 C53.04337891 22.71621094 53.04337891 22.71621094 51.62109375 21.7890625 C50.00948724 20.68903898 48.41776784 19.55826994 46.86328125 18.37890625 C44.40491043 16.55960877 41.75397405 15.31439671 39 14 C39 13.34 39 12.68 39 12 C38.25741943 11.7333252 37.51483887 11.46665039 36.74975586 11.19189453 C34.07272495 10.03152297 32.27005191 8.73651299 30.00390625 6.9296875 C24.25162004 3.00577673 18.72301543 3.10933811 11.9375 3.125 C10.20983398 3.0940625 10.20983398 3.0940625 8.44726562 3.0625 C5.63077843 3.01575332 2.81679263 2.99552636 0 3 C0 2.01 0 1.02 0 0 Z " fill="#CD9F50" transform="translate(0,0)"/>
<path d="M0 0 C1.77388086 1.09926403 3.54399684 2.20460502 5.3125 3.3125 C6.29863281 3.92738281 7.28476562 4.54226563 8.30078125 5.17578125 C10.50172035 6.66324661 12.23328988 8.0403386 14 10 C13 11 13 11 10.41209412 11.12025452 C9.25959671 11.11803391 8.1070993 11.11581329 6.91967773 11.11352539 C4.96776772 11.11341209 4.96776772 11.11341209 2.97642517 11.11329651 C1.54548098 11.10818909 0.11453718 11.10297308 -1.31640625 11.09765625 C-2.7722926 11.09579203 -4.22817957 11.09436815 -5.68406677 11.09336853 C-9.52279379 11.08954365 -13.36148319 11.07971364 -17.20019531 11.06866455 C-21.11457816 11.05844978 -25.02896706 11.05387077 -28.94335938 11.04882812 C-36.62892343 11.03809134 -44.31445645 11.02101529 -52 11 C-52 10.01 -52 9.02 -52 8 C-24.775 7.505 -24.775 7.505 3 7 C1.68 6.34 0.36 5.68 -1 5 C-0.67 3.35 -0.34 1.7 0 0 Z " fill="#2A7FE2" transform="translate(52,328)"/>
<path d="M0 0 C1.60781893 0.7631861 3.21113138 1.53587058 4.8125 2.3125 C5.70582031 2.74175781 6.59914062 3.17101563 7.51953125 3.61328125 C9.81465531 4.8963821 11.21194665 6.11865691 13 8 C13.9075 8.45375 14.815 8.9075 15.75 9.375 C18.22726464 10.61363232 20.12572258 11.75140656 22.3125 13.375 C24.9092742 15.28691067 27.53852824 16.90333875 30.375 18.4375 C34.2974296 20.56131975 37.96243724 22.93414459 41.6484375 25.44140625 C45.67469231 28.10997048 49.83835003 30.54992632 54 33 C53.34 34.32 52.68 35.64 52 37 C49.58166743 35.56524299 47.16531836 34.12731547 44.75 32.6875 C44.06808594 32.28337891 43.38617188 31.87925781 42.68359375 31.46289062 C40.02649189 29.87636864 37.42596464 28.3210993 34.953125 26.45703125 C32.7019562 24.77765933 30.30671867 23.44263146 27.85986328 22.07080078 C24.19551678 19.96108383 20.69162135 17.59340615 17.16210938 15.26757812 C13.54672626 12.91216205 9.90437963 10.86007736 6 9 C6 8.34 6 7.68 6 7 C4.8553125 6.5978125 4.8553125 6.5978125 3.6875 6.1875 C1.12619116 5.05575888 -0.19692938 4.08776599 -2 2 C-1.34 2 -0.68 2 0 2 C0 1.34 0 0.68 0 0 Z " fill="#D6D1CB" transform="translate(242,1025)"/>
<path d="M0 0 C17.5483871 9.09677419 17.5483871 9.09677419 20 14 C21.670625 14.7115625 21.670625 14.7115625 23.375 15.4375 C26.43357217 16.75585007 27.96872183 17.49077403 30 20 C29.01 20.66 28.02 21.32 27 22 C26.47535156 21.57847656 25.95070313 21.15695312 25.41015625 20.72265625 C17.30825817 14.9933606 9.57839299 15.02222365 0 15 C0 14.34 0 13.68 0 13 C5.445 12.505 5.445 12.505 11 12 C10.2059375 11.55269531 9.411875 11.10539063 8.59375 10.64453125 C7.5728125 10.03996094 6.551875 9.43539062 5.5 8.8125 C4.4790625 8.22082031 3.458125 7.62914062 2.40625 7.01953125 C0 5 0 5 -0.34375 2.26171875 C-0.2303125 1.51535156 -0.116875 0.76898437 0 0 Z " fill="#E99E88" transform="translate(0,846)"/>
<path d="M0 0 C0.70125 0.44730469 1.4025 0.89460938 2.125 1.35546875 C3.07375 1.96003906 4.0225 2.56460937 5 3.1875 C5.99773438 3.82558594 6.99546875 4.46367187 8.0234375 5.12109375 C11.1579777 7.09972083 14.33213967 9.00066871 17.5390625 10.859375 C19 12 19 12 20 15 C17.703463 16.1482685 16.41686833 16.11561175 13.8671875 16.09765625 C13.06152344 16.09443359 12.25585938 16.09121094 11.42578125 16.08789062 C10.58402344 16.07951172 9.74226562 16.07113281 8.875 16.0625 C8.02550781 16.05798828 7.17601562 16.05347656 6.30078125 16.04882812 C4.20049091 16.03702874 2.1002367 16.01909306 0 16 C0 15.01 0 14.02 0 13 C5.445 12.505 5.445 12.505 11 12 C10.2059375 11.55269531 9.411875 11.10539062 8.59375 10.64453125 C7.5728125 10.03996094 6.551875 9.43539063 5.5 8.8125 C4.4790625 8.22082031 3.458125 7.62914062 2.40625 7.01953125 C0 5 0 5 -0.34375 2.26171875 C-0.2303125 1.51535156 -0.116875 0.76898438 0 0 Z " fill="#2E7ADD" transform="translate(0,294)"/>
<path d="M0 0 C3.00871375 0.61221652 5.16147713 1.56560078 7.72265625 3.24609375 C10.53651702 5.06176139 13.36413791 6.8293733 16.24609375 8.53515625 C17.64322917 9.37760417 19.04036458 10.22005208 20.4375 11.0625 C21.15615234 11.48337891 21.87480469 11.90425781 22.61523438 12.33789062 C23.29779297 12.75361328 23.98035156 13.16933594 24.68359375 13.59765625 C25.60483032 14.14691772 25.60483032 14.14691772 26.54467773 14.70727539 C28.37865626 16.33635043 28.62301643 17.61767763 29 20 C25.85262818 19.30058404 22.97411124 18.23921302 20 17 C20 16.34 20 15.68 20 15 C19.27683594 14.72929687 18.55367187 14.45859375 17.80859375 14.1796875 C11.10722753 11.36492728 4.98585325 7.0955838 -1 3 C-0.67 2.01 -0.34 1.02 0 0 Z " fill="#2877D7" transform="translate(218,459)"/>
<path d="M0 0 C1.60781893 0.7631861 3.21113138 1.53587058 4.8125 2.3125 C5.70582031 2.74175781 6.59914062 3.17101563 7.51953125 3.61328125 C9.81658559 4.89746123 11.20783581 6.12028756 13 8 C14.99145391 9.01691264 16.99187074 10.01642648 19 11 C21.375 12.5 21.375 12.5 23 14 C23 14.99 23 15.98 23 17 C19.06063556 16.44319937 16.59980359 15.30501425 13.375 13 C10.82203869 11.18765887 8.99311875 9.99770625 6 9 C6 8.34 6 7.68 6 7 C4.8553125 6.5978125 4.8553125 6.5978125 3.6875 6.1875 C1.12619116 5.05575888 -0.19692938 4.08776599 -2 2 C-1.34 2 -0.68 2 0 2 C0 1.34 0 0.68 0 0 Z " fill="#D1CBC3" transform="translate(242,1025)"/>
<path d="M0 0 C5.99103498 2.22524156 11.02225854 5.64129419 16.3125 9.1875 C17.38113281 9.90292969 18.44976562 10.61835937 19.55078125 11.35546875 C20.35902344 11.89816406 21.16726562 12.44085937 22 13 C21.67 14.32 21.34 15.64 21 17 C9.76953125 10.26171875 9.76953125 10.26171875 7.81567383 9.08081055 C6.24909509 8.14827806 4.65779669 7.25750455 3.0625 6.375 C1 5 1 5 0.1875 2.3125 C0.0946875 1.1678125 0.0946875 1.1678125 0 0 Z " fill="#CEC7C1" transform="translate(130,878)"/>
<path d="M0 0 C6.70174028 3.47406389 13.30059304 6.98648155 19 12 C19 12.33 19 12.66 19 13 C13.61586035 13.8193256 11.14232541 12.73066321 6.6875 9.5625 C5.12352433 8.37694417 3.56073886 7.18981372 2 6 C1.34 5.67 0.68 5.34 0 5 C0 3.35 0 1.7 0 0 Z " fill="#D6D3CD" transform="translate(0,846)"/>
<path d="M0 0 C2.45840605 -0.02691685 4.91651882 -0.04679802 7.375 -0.0625 C8.07367188 -0.07087891 8.77234375 -0.07925781 9.4921875 -0.08789062 C14.7734375 -0.11328125 14.7734375 -0.11328125 17 1 C17 1.66 17 2.32 17 3 C11.39 3 5.78 3 0 3 C0 2.01 0 1.02 0 0 Z " fill="#CE9E51" transform="translate(0,307)"/>
<path d="M0 0 C0.33 0.66 0.66 1.32 1 2 C2.3921875 2.4640625 2.3921875 2.4640625 3.8125 2.9375 C6.80735213 3.93578404 8.61830597 4.98472043 11 7 C10.67 7.99 10.34 8.98 10 10 C6.9168649 8.80100302 3.93720508 7.52299523 1 6 C1 5.34 1 4.68 1 4 C0.01 4 -0.98 4 -2 4 C-2 3.34 -2 2.68 -2 2 C-1.34 2 -0.68 2 0 2 C0 1.34 0 0.68 0 0 Z " fill="#CCC9C3" transform="translate(213,1006)"/>
<path d="M0 0 C3.99455527 0.61454696 6.74466336 2.70646737 10 5 C9.67 5.99 9.34 6.98 9 8 C5.23293356 7.47679633 2.72611199 6.72611199 0 4 C0 2.68 0 1.36 0 0 Z " fill="#2687E8" transform="translate(285,501)"/>
<path d="M0 0 C4.51478398 0.53115106 7.34666857 2.36620292 11 5 C10.01 6.485 10.01 6.485 9 8 C5.00499382 6.6302836 2.19990508 4.74277578 -1 2 C-0.67 1.34 -0.34 0.68 0 0 Z " fill="#D5D1CA" transform="translate(105,922)"/>
<path d="M0 0 C1.34313399 0.64669414 2.67391178 1.31903578 4 2 C4.886875 2.433125 5.77375 2.86625 6.6875 3.3125 C9 5 9 5 9.8125 7.6875 C9.874375 8.450625 9.93625 9.21375 10 10 C7.0280615 8.87548273 4.66559313 7.77706209 2 6 C2 5.01 2 4.02 2 3 C1.34 3 0.68 3 0 3 C0 2.01 0 1.02 0 0 Z " fill="#D0C6BF" transform="translate(323,877)"/>
<path d="M0 0 C4.83256305 0.41421969 6.82679218 2.46413986 10 6 C9.01 6.66 8.02 7.32 7 8 C7 7.34 7 6.68 7 6 C6.05125 5.690625 5.1025 5.38125 4.125 5.0625 C1 4 1 4 -1 3 C-0.67 2.01 -0.34 1.02 0 0 Z " fill="#357DD3" transform="translate(10,302)"/>
<path d="M0 0 C5.75 1.75 5.75 1.75 8 4 C8 4.99 8 5.98 8 7 C4.62537285 6.45276317 2.91765 5.9451 0 4 C0 2.68 0 1.36 0 0 Z " fill="#2479D1" transform="translate(191,365)"/>
<path d="M0 0 C2.9719385 1.12451727 5.33440687 2.22293791 8 4 C8 4.99 8 5.98 8 7 C4.62537285 6.45276317 2.91765 5.9451 0 4 C0 2.68 0 1.36 0 0 Z " fill="#D1CCC6" transform="translate(0,1047)"/>
<path d="M0 0 C3.465 1.98 3.465 1.98 7 4 C6.34 5.32 5.68 6.64 5 8 C3.02 6.68 1.04 5.36 -1 4 C-0.67 2.68 -0.34 1.36 0 0 Z " fill="#3074D2" transform="translate(193,501)"/>
<path d="M0 0 C2.97 1.98 2.97 1.98 6 4 C5.67 5.32 5.34 6.64 5 8 C3.0625 7.375 3.0625 7.375 1 6 C0.25 2.875 0.25 2.875 0 0 Z " fill="#3983E4" transform="translate(131,326)"/>
<path d="M0 0 C1.65 0.99 3.3 1.98 5 3 C4.67 4.32 4.34 5.64 4 7 C2.35 6.01 0.7 5.02 -1 4 C-0.67 2.68 -0.34 1.36 0 0 Z " fill="#CBC8C2" transform="translate(65,1095)"/>
<path d="M0 0 C2.475 0.99 2.475 0.99 5 2 C4.34 3.32 3.68 4.64 3 6 C1.68 4.68 0.36 3.36 -1 2 C-0.67 1.34 -0.34 0.68 0 0 Z " fill="#D1CDCA" transform="translate(176,907)"/>
<path d="M0 0 C1.65 0.33 3.3 0.66 5 1 C4.67 2.32 4.34 3.64 4 5 C1.525 4.01 1.525 4.01 -1 3 C-0.67 2.01 -0.34 1.02 0 0 Z " fill="#DBD8D2" transform="translate(105,922)"/>
<path d="M0 0 C2.475 0.99 2.475 0.99 5 2 C4.34 3.32 3.68 4.64 3 6 C1.68 5.34 0.36 4.68 -1 4 C-0.67 2.68 -0.34 1.36 0 0 Z " fill="#DCDAD1" transform="translate(181,910)"/>
<path d="M0 0 C1.98 0.495 1.98 0.495 4 1 C4 2.32 4 3.64 4 5 C1.525 4.01 1.525 4.01 -1 3 C-0.67 2.01 -0.34 1.02 0 0 Z " fill="#C9C6C1" transform="translate(115,928)"/>
<path d="M0 0 C1.32 0.33 2.64 0.66 4 1 C3.67 2.32 3.34 3.64 3 5 C2.01 4.67 1.02 4.34 0 4 C0 2.68 0 1.36 0 0 Z " fill="#CCC6C1" transform="translate(71,900)"/>
<path d="M0 0 C1.98 0.495 1.98 0.495 4 1 C4 1.99 4 2.98 4 4 C3.01 4.33 2.02 4.66 1 5 C0.34 4.01 -0.32 3.02 -1 2 C-0.67 1.34 -0.34 0.68 0 0 Z " fill="#2286E5" transform="translate(74,550)"/>
<path d="M0 0 C1.32 0.66 2.64 1.32 4 2 C3.34 3.32 2.68 4.64 2 6 C1.01 5.34 0.02 4.68 -1 4 C-0.67 2.68 -0.34 1.36 0 0 Z " fill="#3D7AE4" transform="translate(178,492)"/>
</svg>
